<svg xmlns="http://www.w3.org/2000/svg" viewBox="0 0 320 72" width="320" height="72" fill="none">
  <defs>
    <radialGradient id="gOcean" cx="35%" cy="28%" r="70%">
      <stop offset="0%"   stop-color="#bae6fd" stop-opacity="0.95"/>
      <stop offset="50%"  stop-color="#38bdf8" stop-opacity="0.6"/>
      <stop offset="100%" stop-color="#0369a1" stop-opacity="0.3"/>
    </radialGradient>
    <radialGradient id="gShine" cx="28%" cy="22%" r="40%">
      <stop offset="0%"   stop-color="#ffffff" stop-opacity="0.9"/>
      <stop offset="100%" stop-color="#ffffff" stop-opacity="0"/>
    </radialGradient>
    <linearGradient id="gRingF" x1="0%" y1="0%" x2="100%" y2="0%">
      <stop offset="0%"   stop-color="#f97316" stop-opacity="0.15"/>
      <stop offset="30%"  stop-color="#f97316" stop-opacity="1"/>
      <stop offset="70%"  stop-color="#ea580c" stop-opacity="1"/>
      <stop offset="100%" stop-color="#f97316" stop-opacity="0.15"/>
    </linearGradient>
    <linearGradient id="gRingB" x1="0%" y1="0%" x2="100%" y2="0%">
      <stop offset="0%"   stop-color="#7c2d12" stop-opacity="0.1"/>
      <stop offset="50%"  stop-color="#7c2d12" stop-opacity="0.45"/>
      <stop offset="100%" stop-color="#7c2d12" stop-opacity="0.1"/>
    </linearGradient>
    <clipPath id="gC"><circle cx="36" cy="34" r="18"/></clipPath>
    <clipPath id="gRB"><rect x="0" y="40" width="72" height="20"/></clipPath>
    <clipPath id="gRF"><rect x="0" y="0"  width="72" height="40"/></clipPath>
  </defs>

  <!-- Hexagon outer ring -->
  <polygon points="36,4 62,19 62,49 36,64 10,49 10,19"
    fill="none" stroke="rgba(255,255,255,0.25)" stroke-width="1.5"/>
  <polygon points="36,11 56,22.5 56,45.5 36,57 16,45.5 16,22.5"
    fill="rgba(255,255,255,0.08)"/>

  <!-- Globe ocean -->
  <circle cx="36" cy="34" r="18"
    fill="url(#gOcean)" stroke="rgba(255,255,255,0.7)" stroke-width="1.6"/>

  <!-- Continents -->
  <g clip-path="url(#gC)">
    <path d="M18 22 Q20 18 24 17 Q27 16 28 19 Q30 21 29 25 Q27 28 24 29 Q21 30 19 28 Q17 26 18 22Z" fill="rgba(255,255,255,0.55)"/>
    <ellipse cx="28" cy="18" rx="2.5" ry="2" fill="rgba(255,255,255,0.4)"/>
    <path d="M23 31 Q25 29 27 31 Q28 34 27 38 Q25 41 23 39 Q21 36 22 33Z" fill="rgba(255,255,255,0.5)"/>
    <path d="M33 19 Q35 17 37 18 Q39 19 38 22 Q37 24 35 24 Q33 23 33 21Z" fill="rgba(255,255,255,0.55)"/>
    <path d="M33 25 Q35 23 37 24 Q39 26 39 30 Q39 35 37 37 Q35 38 33 36 Q31 33 31 29 Q31 26 33 25Z" fill="rgba(255,255,255,0.5)"/>
    <path d="M38 17 Q42 15 47 16 Q51 17 52 20 Q53 23 51 25 Q48 27 44 27 Q40 27 38 25 Q37 22 38 19Z" fill="rgba(255,255,255,0.55)"/>
    <path d="M43 27 Q45 26 46 28 Q47 31 45 33 Q43 33 42 31 Q42 29 43 27Z" fill="rgba(255,255,255,0.45)"/>
    <path d="M48 31 Q51 29 53 31 Q54 34 52 36 Q50 37 48 35 Q47 33 48 31Z" fill="rgba(255,255,255,0.5)"/>
    <ellipse cx="36" cy="50" rx="10" ry="2.5" fill="rgba(255,255,255,0.35)"/>
  </g>

  <!-- Grid lines -->
  <ellipse cx="36" cy="34" rx="18" ry="6.5"  fill="none" stroke="rgba(255,255,255,0.3)"  stroke-width="0.7"/>
  <ellipse cx="36" cy="34" rx="18" ry="13"   fill="none" stroke="rgba(255,255,255,0.18)" stroke-width="0.6"/>
  <ellipse cx="36" cy="34" rx="7"  ry="18"   fill="none" stroke="rgba(255,255,255,0.3)"  stroke-width="0.7"/>
  <ellipse cx="36" cy="34" rx="14" ry="18"   fill="none" stroke="rgba(255,255,255,0.18)" stroke-width="0.6"/>
  <line x1="18" y1="34" x2="54" y2="34" stroke="rgba(255,255,255,0.35)" stroke-width="0.8"/>
  <line x1="36" y1="16" x2="36" y2="52" stroke="rgba(255,255,255,0.35)" stroke-width="0.8"/>

  <!-- Saturn ring back -->
  <g clip-path="url(#gRB)">
    <ellipse cx="36" cy="34" rx="25" ry="8.5" fill="none" stroke="url(#gRingB)" stroke-width="4" transform="rotate(-20,36,34)"/>
  </g>
  <!-- Globe shine -->
  <circle cx="36" cy="34" r="18" fill="url(#gShine)"/>
  <!-- Saturn ring front -->
  <g clip-path="url(#gRF)">
    <ellipse cx="36" cy="34" rx="25" ry="8.5" fill="none" stroke="url(#gRingF)" stroke-width="4" transform="rotate(-20,36,34)"/>
  </g>

  <!-- ═══════════════════════════════════════════════ -->
  <!-- EXODUS — drawn as filled rectangles/paths      -->
  <!-- Each letter hand-crafted as vector shapes      -->
  <!-- ═══════════════════════════════════════════════ -->

  <!-- E -->
  <rect x="80" y="18" width="3.5" height="18" fill="white"/>
  <rect x="80" y="18" width="11"  height="3"  fill="white"/>
  <rect x="80" y="26" width="9"   height="2.5" fill="white"/>
  <rect x="80" y="33" width="11"  height="3"  fill="white"/>

  <!-- X -->
  <polygon points="95,18 98.5,18 103,25.5 107.5,18 111,18 105,27 111,36 107.5,36 103,28.5 98.5,36 95,36 101,27" fill="white"/>

  <!-- O -->
  <path d="M114 27 C114 21.5 117.5 18 122 18 C126.5 18 130 21.5 130 27 C130 32.5 126.5 36 122 36 C117.5 36 114 32.5 114 27Z" fill="white"/>
  <path d="M117.5 27 C117.5 23.5 119.5 21.5 122 21.5 C124.5 21.5 126.5 23.5 126.5 27 C126.5 30.5 124.5 32.5 122 32.5 C119.5 32.5 117.5 30.5 117.5 27Z" fill="rgba(255,255,255,0)"/>
  <!-- O inner hole -->
  <ellipse cx="122" cy="27" rx="4.5" ry="5.5" fill="#1d6fab"/>

  <!-- D -->
  <rect x="133" y="18" width="3.5" height="18" fill="white"/>
  <path d="M136.5 18 L141 18 C145.5 18 148.5 21.5 148.5 27 C148.5 32.5 145.5 36 141 36 L136.5 36Z" fill="white"/>
  <path d="M140 21.5 L141 21.5 C143.5 21.5 145 23.5 145 27 C145 30.5 143.5 32.5 141 32.5 L140 32.5Z" fill="#1d6fab"/>

  <!-- U -->
  <rect x="152" y="18" width="3.5" height="13" fill="white"/>
  <rect x="165" y="18" width="3.5" height="13" fill="white"/>
  <path d="M152 31 Q152 36 160.5 36 Q169 36 169 31 L165.5 31 Q165.5 33 160.5 33 Q155.5 33 155.5 31Z" fill="white"/>

  <!-- S -->
  <path d="M173 23 C173 19.5 176 18 180 18 C184 18 187 19.5 187 22 L183.5 22 C183.5 21 182 20.5 180 20.5 C178 20.5 176.5 21.2 176.5 23 C176.5 24.8 178 25.2 181 26 C184.5 27 187.5 28.5 187.5 32 C187.5 35 184.5 36.5 180.5 36.5 C176.5 36.5 173 34.8 173 31.5 L176.5 31.5 C176.5 33 178 34 180.5 34 C183 34 184 33 184 32 C184 30.5 182.5 30 179.5 29 C176.5 28 173 26.5 173 23Z" fill="white"/>

  <!-- Orange dot after EXODUS -->
  <circle cx="192" cy="22" r="3.5" fill="#f97316"/>

  <!-- ═══════════════════════════════════════════════ -->
  <!-- LOGISTICS — smaller, spaced, drawn as paths    -->
  <!-- ═══════════════════════════════════════════════ -->
  <g fill="rgba(255,255,255,0.82)" transform="translate(80,43)">

    <!-- L -->
    <rect x="0"   y="0" width="2.2" height="11" />
    <rect x="0"   y="9" width="7"   height="2"  />

    <!-- O -->
    <path d="M10 5.5 C10 2.5 12 0.5 14.5 0.5 C17 0.5 19 2.5 19 5.5 C19 8.5 17 10.5 14.5 10.5 C12 10.5 10 8.5 10 5.5Z"/>
    <ellipse cx="14.5" cy="5.5" rx="2.5" ry="3" fill="#1d6fab"/>

    <!-- G -->
    <path d="M22 5.5 C22 2.5 24 0.5 26.5 0.5 C28.5 0.5 30 1.5 30.5 3 L28.5 3 C28.2 2.3 27.4 2 26.5 2 C25 2 23.8 3.5 23.8 5.5 C23.8 7.5 25 9 26.5 9 C27.8 9 28.8 8.2 29 7 L26.5 7 L26.5 5.5 L31 5.5 L31 11 L29.5 11 L29.5 9.5 C28.8 10.5 27.8 11 26.5 11 C24 11 22 8.8 22 5.5Z"/>

    <!-- I -->
    <rect x="34" y="0.5" width="2.2" height="10.5"/>

    <!-- S -->
    <path d="M39.5 3.5 C39.5 1.5 41 0.5 43 0.5 C45 0.5 46.5 1.5 46.5 3 L44.8 3 C44.8 2.5 44 2 43 2 C42 2 41.2 2.5 41.2 3.5 C41.2 4.5 42 4.8 43.5 5.2 C45.3 5.8 47 6.5 47 8.5 C47 10.2 45.5 11 43.2 11 C41 11 39.5 10 39.5 8 L41.2 8 C41.2 9 42 9.5 43.2 9.5 C44.5 9.5 45.3 9 45.3 8.3 C45.3 7.3 44.3 7 42.8 6.5 C41 6 39.5 5.2 39.5 3.5Z"/>

    <!-- T -->
    <rect x="50"  y="0.5" width="7.5" height="2"/>
    <rect x="52.8" y="0.5" width="2.2" height="10.5"/>

    <!-- I -->
    <rect x="60.5" y="0.5" width="2.2" height="10.5"/>

    <!-- C -->
    <path d="M66 5.5 C66 2.5 68 0.5 70.5 0.5 C72.5 0.5 74 1.5 74.5 3 L72.8 3 C72.5 2.3 71.7 2 70.5 2 C69 2 67.8 3.5 67.8 5.5 C67.8 7.5 69 9 70.5 9 C71.7 9 72.5 8.3 72.8 7.5 L74.5 7.5 C74 9 72.5 11 70.5 11 C68 11 66 8.8 66 5.5Z"/>

    <!-- S -->
    <path d="M77.5 3.5 C77.5 1.5 79 0.5 81 0.5 C83 0.5 84.5 1.5 84.5 3 L82.8 3 C82.8 2.5 82 2 81 2 C80 2 79.2 2.5 79.2 3.5 C79.2 4.5 80 4.8 81.5 5.2 C83.3 5.8 85 6.5 85 8.5 C85 10.2 83.5 11 81.2 11 C79 11 77.5 10 77.5 8 L79.2 8 C79.2 9 80 9.5 81.2 9.5 C82.5 9.5 83.3 9 83.3 8.3 C83.3 7.3 82.3 7 80.8 6.5 C79 6 77.5 5.2 77.5 3.5Z"/>

  </g>

  <!-- Orange underline -->
  <line x1="80" y1="61" x2="240" y2="61"
    stroke="#f97316" stroke-width="2" stroke-linecap="round"/>
</svg>